<?xml version="1.0" standalone="no"?>
<!DOCTYPE svg PUBLIC "-//W3C//DTD SVG 20010904//EN"
 "http://www.w3.org/TR/2001/REC-SVG-20010904/DTD/svg10.dtd">
<svg version="1.0" xmlns="http://www.w3.org/2000/svg"
 width="500.000000pt" height="500.000000pt" viewBox="0 0 500.000000 500.000000"
 preserveAspectRatio="xMidYMid meet">

<g transform="translate(0.000000,500.000000) scale(0.100000,-0.100000)"
fill="#000000" stroke="none">
<path d="M3336 4455 c-305 -58 -544 -279 -632 -585 -25 -90 -26 -308 -1 -400
42 -154 146 -317 267 -418 76 -63 217 -134 312 -158 83 -20 98 -15 98 30 0 31
-3 34 -37 41 -171 31 -344 143 -448 289 -88 124 -128 252 -129 411 0 131 17
206 74 320 75 152 175 252 325 325 103 50 193 71 315 71 307 1 572 -188 677
-483 35 -99 43 -280 18 -393 -33 -148 -138 -312 -259 -403 -72 -55 -181 -107
-268 -128 -61 -15 -66 -19 -70 -45 -7 -44 12 -55 75 -40 294 67 520 288 603
591 26 94 24 288 -4 391 -60 222 -212 408 -415 508 -56 28 -131 57 -167 66
-97 23 -241 27 -334 10z"/>
<path d="M1660 4396 c-267 -56 -482 -265 -546 -531 -20 -85 -21 -268 -1 -340
16 -60 43 -68 67 -20 31 60 81 141 104 166 37 42 107 89 131 89 13 0 49 -17
81 -38 33 -21 82 -48 109 -59 60 -26 172 -50 182 -40 4 4 -3 28 -15 52 -25 52
-28 85 -8 85 8 0 56 -14 108 -31 77 -26 114 -32 215 -36 78 -4 145 -1 185 7
76 14 72 18 117 -119 25 -79 37 -101 51 -101 45 0 62 271 25 400 -87 306 -340
512 -644 525 -59 3 -121 -1 -161 -9z m45 -125 c0 -21 -8 -27 -50 -39 -81 -23
-100 -21 -100 8 0 21 8 27 55 42 72 23 95 20 95 -11z m-227 -92 c1 -8 -30 -49
-70 -90 -70 -71 -91 -104 -137 -212 -15 -35 -26 -48 -38 -45 -59 11 12 171
128 291 75 78 109 95 117 56z"/>
<path d="M3365 4316 c-122 -24 -235 -78 -325 -156 l-24 -22 28 -51 c42 -75 43
-76 82 -70 42 7 112 -18 144 -52 21 -23 23 -23 56 -8 27 13 36 14 49 3 22 -18
19 -27 -19 -52 -32 -21 -34 -26 -34 -79 0 -32 -7 -69 -16 -87 -15 -29 -15 -31
3 -37 11 -3 25 -13 32 -21 10 -12 9 -18 -4 -31 -15 -16 -19 -16 -51 0 -32 15
-38 15 -73 1 -25 -11 -54 -14 -88 -11 -47 5 -52 3 -87 -30 -23 -23 -42 -33
-52 -30 -25 10 -19 41 14 72 l30 29 -21 22 c-53 57 -54 174 -2 243 l26 34 -28
55 -29 55 -23 -29 c-44 -54 -103 -187 -119 -269 -43 -219 28 -439 193 -602 40
-40 73 -77 73 -83 0 -16 63 -50 81 -45 9 3 51 -6 92 -20 102 -34 103 -33 109
20 6 53 21 73 66 92 64 27 132 -30 132 -112 0 -29 8 -30 81 -9 125 37 245 118
331 226 217 270 186 652 -72 891 -148 137 -363 200 -555 163z m255 -111 c22
-27 -5 -45 -67 -45 -55 0 -72 12 -59 45 4 11 21 15 59 15 36 0 59 -5 67 -15z
m230 -309 c25 -17 48 -44 67 -83 37 -75 40 -192 7 -263 -60 -129 -188 -165
-275 -77 -88 87 -103 245 -36 358 58 97 150 123 237 65z m-555 -511 c83 -40
66 -157 -26 -171 -50 -8 -99 33 -99 83 0 46 15 72 53 88 40 18 33 18 72 0z"/>
<path d="M3699 3843 c-111 -94 -81 -333 46 -359 22 -4 40 1 64 18 48 32 72 77
78 146 7 79 -11 138 -57 184 -47 47 -84 50 -131 11z"/>
<path d="M3243 3333 c-15 -6 -17 -49 -3 -58 33 -20 65 26 38 53 -13 13 -16 13
-35 5z"/>
<path d="M3089 3945 c-81 -44 -86 -171 -10 -222 67 -45 153 -15 180 64 13 37
13 45 -3 88 -29 75 -102 105 -167 70z"/>
<path d="M1347 3648 c-31 -31 -70 -87 -95 -136 -34 -65 -50 -85 -76 -96 -43
-18 -66 -51 -66 -97 0 -44 29 -84 67 -94 38 -9 53 -23 53 -50 0 -12 9 -57 20
-100 56 -220 199 -384 375 -430 74 -19 223 -19 294 0 186 49 324 206 382 433
10 41 19 85 19 97 0 26 14 40 53 49 15 3 41 19 58 34 25 23 33 38 36 78 6 55
-5 71 -60 89 -28 9 -34 20 -64 110 l-33 100 -163 0 c-127 0 -177 4 -230 19
-38 10 -70 16 -72 14 -2 -2 5 -21 15 -42 29 -63 21 -70 -79 -63 -101 6 -218
45 -305 101 -31 20 -61 36 -67 36 -6 0 -34 -24 -62 -52z m191 -227 c9 -5 12
-24 10 -57 -2 -38 -7 -50 -22 -52 -23 -5 -36 14 -36 51 0 30 16 67 28 67 4 0
13 -4 20 -9z m541 -5 c7 -8 11 -34 9 -58 -3 -38 -6 -43 -28 -43 -22 0 -25 5
-28 43 -3 40 10 72 28 72 4 0 13 -6 19 -14z m-760 -90 c17 -20 2 -46 -25 -46
-29 0 -41 24 -24 45 16 19 34 19 49 1z m935 -41 c9 -24 -4 -45 -29 -45 -25 0
-38 21 -29 45 4 8 16 15 29 15 13 0 25 -7 29 -15z m-320 -11 c18 -7 22 -49 6
-59 -33 -20 -65 26 -38 53 14 14 12 14 32 6z m-459 -194 c0 -18 -6 -26 -23
-28 -13 -2 -25 3 -28 12 -10 26 4 48 28 44 17 -2 23 -10 23 -28z m693 -72 c27
-27 -5 -73 -38 -53 -14 9 -12 52 3 58 19 8 22 8 35 -5z m-276 -27 c45 -29 66
-60 53 -81 -11 -18 -37 -11 -72 20 -28 25 -42 30 -83 30 -41 0 -55 -5 -83 -30
-61 -53 -105 -25 -51 32 62 66 159 78 236 29z m-347 -101 c0 -18 -6 -26 -23
-28 -13 -2 -25 3 -28 12 -10 26 4 48 28 44 17 -2 23 -10 23 -28z m279 -162 c8
-14 7 -21 -6 -34 -30 -30 -75 9 -48 42 16 18 39 15 54 -8z"/>
<path d="M3458 3099 c-15 -8 -18 -26 -18 -112 -1 -91 -3 -106 -25 -142 l-25
-40 0 -353 0 -354 29 -29 c40 -39 82 -39 122 0 l29 29 0 351 0 351 -25 40
c-22 35 -25 50 -25 138 0 83 -3 102 -18 115 -21 20 -21 20 -44 6z"/>
<path d="M1915 2583 c-51 -14 -262 -14 -296 1 -13 6 -18 -1 -23 -31 -12 -64
-53 -138 -94 -166 -60 -42 -113 -55 -269 -67 -336 -26 -425 -59 -482 -179
l-26 -56 0 -525 0 -525 220 0 220 0 3 443 c1 282 6 443 12 444 6 0 16 1 23 2
9 1 13 -97 17 -444 l5 -445 454 -3 c412 -2 456 -1 473 14 24 22 23 56 -2 79
-30 27 -71 10 -84 -33 -7 -25 -14 -32 -30 -30 -25 4 -33 46 -16 78 14 27 68
60 98 60 65 0 118 -64 109 -132 l-5 -38 69 0 69 0 0 444 c0 401 2 444 16 450
43 17 44 6 44 -455 l0 -439 220 0 220 0 0 505 c0 326 -4 522 -11 555 -21 97
-105 173 -222 199 -29 6 -133 18 -232 26 -228 19 -273 32 -335 94 -49 49 -70
96 -70 159 0 36 -2 36 -75 15z m-510 -378 c55 -54 12 -145 -69 -145 -34 0 -76
43 -76 78 0 47 32 51 56 7 15 -27 48 -26 52 2 2 15 -4 23 -20 28 -27 9 -38 23
-31 42 9 22 62 15 88 -12z m694 -40 c56 -29 63 -106 14 -145 -70 -55 -166 20
-132 102 11 28 50 57 77 58 7 0 26 -7 41 -15z m526 -65 c0 -18 -6 -26 -23 -28
-13 -2 -25 3 -28 12 -10 26 4 48 28 44 17 -2 23 -10 23 -28z m-1656 -159 c13
-24 -9 -57 -33 -48 -23 9 -31 34 -16 52 17 20 37 19 49 -4z m650 -106 c32 -16
41 -33 41 -75 0 -16 -3 -36 -6 -45 -8 -19 -55 -45 -84 -45 -33 0 -80 53 -80
90 0 22 9 41 29 61 33 32 58 36 100 14z m536 -227 c40 -18 59 -61 45 -104 -22
-66 -107 -82 -150 -27 -35 45 -18 112 34 133 29 12 41 12 71 -2z m549 -131 c9
-14 7 -21 -7 -32 -33 -24 -71 11 -46 42 15 18 39 13 53 -10z m-1166 -83 c2
-14 -6 -24 -30 -35 -36 -15 -47 -41 -28 -64 25 -31 80 -12 80 27 0 25 28 34
46 16 36 -36 -28 -118 -91 -118 -42 0 -91 39 -100 80 -8 36 17 93 48 108 34
17 72 10 75 -14z m-544 -95 c33 -26 35 -73 4 -106 -29 -31 -72 -30 -105 3 -20
20 -24 31 -19 57 12 62 70 85 120 46z"/>
<path d="M2041 2106 c-15 -18 -3 -46 19 -46 10 0 21 7 24 16 6 16 -9 44 -24
44 -4 0 -13 -6 -19 -14z"/>
<path d="M1554 1775 c-8 -21 2 -45 19 -45 8 0 20 7 27 15 10 12 10 18 0 30 -7
8 -19 15 -27 15 -7 0 -16 -7 -19 -15z"/>
<path d="M2094 1545 c-8 -21 2 -45 19 -45 8 0 20 7 27 15 10 12 10 18 0 30 -7
8 -19 15 -27 15 -7 0 -16 -7 -19 -15z"/>
<path d="M937 1253 c-12 -11 -8 -23 8 -23 8 0 15 7 15 15 0 16 -12 20 -23 8z"/>
<path d="M3086 1714 c-16 -43 -5 -44 429 -44 353 0 414 2 425 15 7 8 10 22 6
30 -5 13 -60 15 -430 15 -382 0 -424 -2 -430 -16z"/>
<path d="M3091 1606 c-6 -7 -9 -21 -5 -30 6 -14 48 -16 430 -16 370 0 425 2
430 15 4 8 1 22 -6 30 -18 21 -831 23 -849 1z"/>
<path d="M3083 1484 c-3 -8 -1 -20 4 -25 5 -5 177 -8 434 -7 416 3 424 3 424
23 0 20 -8 20 -428 23 -382 2 -428 1 -434 -14z"/>
<path d="M3086 1374 c-16 -43 -5 -44 429 -44 353 0 414 2 425 15 7 8 10 22 6
30 -5 13 -60 15 -430 15 -382 0 -424 -2 -430 -16z"/>
<path d="M1212 742 l-33 -3 3 -117 3 -117 58 2 c79 3 118 26 136 82 11 36 11
48 0 78 -23 60 -78 85 -167 75z m98 -62 c22 -22 26 -60 9 -93 -16 -29 -28 -37
-61 -37 l-28 0 0 75 0 75 30 0 c17 0 39 -9 50 -20z"/>
<path d="M1638 743 l-28 -4 0 -115 0 -114 25 0 c23 0 25 4 25 46 0 41 2 45 22
42 17 -2 25 -14 34 -43 9 -32 16 -41 37 -43 33 -4 35 16 9 68 -17 34 -17 36 1
62 22 30 17 72 -11 86 -23 13 -81 20 -114 15z m77 -73 c0 -20 -6 -26 -27 -28
-25 -3 -28 0 -28 28 0 28 3 31 28 28 21 -2 27 -8 27 -28z"/>
<path d="M2554 736 c-46 -20 -64 -52 -64 -112 0 -96 75 -148 157 -108 44 22
63 54 63 106 0 54 -15 85 -52 108 -38 23 -61 24 -104 6z m86 -55 c5 -11 10
-36 10 -56 0 -52 -15 -75 -49 -75 -38 0 -56 24 -56 75 0 23 6 49 14 58 19 23
68 22 81 -2z"/>
<path d="M2975 741 c-74 -31 -96 -148 -38 -205 73 -74 193 -19 193 89 0 87
-80 146 -155 116z m81 -58 c16 -21 18 -87 4 -114 -15 -27 -64 -25 -84 3 -34
49 -9 128 41 128 14 0 32 -8 39 -17z"/>
<path d="M3265 743 c-73 -16 -108 -54 -109 -119 -2 -81 72 -135 159 -117 l40
8 3 63 3 62 -46 0 c-38 0 -45 -3 -45 -20 0 -13 7 -20 20 -20 15 0 20 -7 20
-25 0 -21 -5 -25 -27 -25 -34 0 -46 8 -62 37 -16 32 -14 57 10 87 19 24 28 27
68 24 41 -2 46 0 49 20 3 16 -2 22 -16 22 -11 0 -26 2 -34 4 -7 2 -22 2 -33
-1z"/>
<path d="M1420 625 l0 -115 75 0 c68 0 75 2 75 20 0 17 -7 20 -45 20 -43 0
-45 1 -45 30 0 28 2 30 40 30 33 0 40 3 40 20 0 17 -7 20 -39 20 -22 0 -41 5
-43 13 -10 26 4 37 48 37 37 0 44 3 44 20 0 18 -7 20 -75 20 l-75 0 0 -115z"/>
<path d="M1826 718 c-3 -13 -7 -65 -10 -115 -5 -92 -5 -93 19 -93 22 0 24 5
31 78 l7 77 21 -75 c18 -61 26 -76 43 -78 19 -3 25 6 46 72 13 42 27 73 30 69
4 -3 7 -37 7 -75 0 -66 1 -68 25 -68 29 0 30 14 18 154 l-6 77 -36 -3 c-35 -3
-36 -5 -57 -73 -12 -40 -24 -63 -27 -55 -3 8 -13 41 -22 73 -15 55 -17 57 -50
57 -28 0 -36 -4 -39 -22z"/>
<path d="M2167 733 c-6 -10 -67 -208 -67 -217 0 -4 12 -6 27 -4 20 2 29 10 33
28 4 19 13 26 39 28 28 3 34 -1 44 -27 9 -25 17 -31 40 -31 19 0 28 4 24 13
-2 6 -18 58 -36 115 l-32 102 -34 0 c-18 0 -36 -3 -38 -7z m52 -105 c1 -12 -6
-18 -20 -18 -18 0 -20 4 -14 33 4 17 10 36 13 42 6 10 19 -26 21 -57z"/>
<path d="M2300 720 c0 -16 7 -20 30 -20 l30 0 0 -95 c0 -94 0 -95 25 -95 24 0
24 2 27 93 l3 92 33 3 c24 2 32 8 32 23 0 17 -8 19 -90 19 -83 0 -90 -1 -90
-20z"/>
<path d="M2750 625 l0 -115 75 0 c68 0 75 2 75 20 0 17 -7 20 -50 20 l-50 0 0
95 c0 95 0 95 -25 95 l-25 0 0 -115z"/>
<path d="M3390 735 c0 -2 16 -33 35 -68 26 -47 35 -76 35 -110 0 -43 2 -47 25
-47 23 0 25 3 25 48 0 26 6 56 13 67 7 11 26 41 41 68 l27 47 -31 0 c-27 0
-33 -6 -51 -47 l-20 -48 -21 48 c-18 40 -25 47 -49 47 -16 0 -29 -2 -29 -5z"/>
</g>
</svg>
