<?xml version="1.0" standalone="no"?>
<!DOCTYPE svg PUBLIC "-//W3C//DTD SVG 20010904//EN"
 "http://www.w3.org/TR/2001/REC-SVG-20010904/DTD/svg10.dtd">
<svg version="1.0" xmlns="http://www.w3.org/2000/svg"
 width="500.000000pt" height="500.000000pt" viewBox="0 0 500.000000 500.000000"
 preserveAspectRatio="xMidYMid meet">

<g transform="translate(0.000000,500.000000) scale(0.100000,-0.100000)"
fill="#000000" stroke="none">
<path d="M2531 4241 c-29 -19 3 -296 49 -429 11 -29 39 -85 64 -124 52 -81 61
-122 53 -247 -9 -157 -70 -264 -202 -353 -70 -48 -320 -153 -420 -177 -132
-32 -264 -128 -304 -221 -42 -99 -46 -261 -8 -352 23 -55 91 -123 150 -149
l52 -24 593 -5 594 -5 19 -24 c30 -36 25 -84 -12 -115 l-31 -26 -717 0 c-808
0 -772 3 -860 -76 -66 -59 -95 -127 -95 -219 0 -118 65 -219 173 -269 45 -21
56 -21 626 -23 319 -2 590 -5 602 -8 29 -7 57 -59 49 -91 -4 -14 -15 -33 -26
-44 -19 -19 -34 -20 -240 -20 -330 0 -320 8 -320 -283 0 -169 2 -196 16 -201
23 -9 167 -7 181 2 8 5 13 49 15 137 l3 130 178 1 178 2 64 31 c246 121 206
476 -61 546 -49 12 -151 15 -617 15 -345 0 -565 4 -577 10 -24 13 -41 65 -31
93 21 54 -13 52 780 57 723 5 737 5 781 26 105 49 171 154 171 271 0 57 -5 78
-33 132 -36 72 -102 130 -168 150 -26 8 -213 11 -608 11 -403 0 -578 3 -596
11 -53 25 -67 130 -27 212 42 88 101 97 222 37 188 -95 367 -135 569 -127 158
6 221 21 345 82 152 75 261 190 349 368 68 137 89 225 89 382 1 284 -103 499
-282 588 -60 29 -74 32 -156 31 -104 -1 -162 -18 -244 -72 l-54 -36 -23 27
c-36 42 -63 173 -64 303 0 47 -4 63 -16 68 -24 9 -157 7 -173 -3z"/>
</g>
</svg>
