<?xml version="1.0" standalone="no"?>
<!DOCTYPE svg PUBLIC "-//W3C//DTD SVG 20010904//EN"
 "http://www.w3.org/TR/2001/REC-SVG-20010904/DTD/svg10.dtd">
<svg version="1.0" xmlns="http://www.w3.org/2000/svg"
 width="800.000000pt" height="445.000000pt" viewBox="0 0 800.000000 445.000000"
 preserveAspectRatio="xMidYMid meet">

<g transform="translate(0.000000,445.000000) scale(0.100000,-0.100000)"
fill="#000000" stroke="none">
<path d="M3715 3821 c-166 -45 -271 -104 -380 -215 -54 -55 -93 -105 -118
-153 -67 -129 -77 -170 -84 -353 -5 -164 -6 -165 -34 -195 -42 -45 -62 -101
-62 -175 0 -79 22 -127 86 -187 50 -47 50 -45 32 -208 -13 -116 -76 -241 -139
-274 -14 -8 -26 -18 -26 -22 0 -4 25 -13 56 -19 56 -12 156 -6 202 11 18 7 22
5 22 -10 0 -10 -9 -30 -20 -43 -10 -14 -16 -28 -13 -32 13 -13 124 -5 185 14
36 11 85 36 109 55 61 48 69 46 69 -20 0 -46 -3 -55 -17 -55 -60 -1 -153 -75
-185 -148 -18 -40 -18 -45 -4 -61 9 -10 16 -23 16 -29 0 -7 7 -12 16 -12 24 0
126 -109 151 -160 34 -70 58 -203 58 -317 0 -94 -2 -103 -24 -127 -14 -14 -32
-26 -42 -26 -9 0 -22 -7 -29 -15 -16 -20 -89 -19 -118 1 -24 17 -29 56 -9 72
7 6 42 12 77 14 l65 3 3 73 c5 119 -10 173 -75 273 -67 101 -97 124 -155 116
-46 -6 -78 -33 -115 -96 -14 -25 -38 -60 -54 -78 -31 -36 -49 -107 -49 -193 0
-79 21 -100 98 -100 50 0 54 -2 65 -29 9 -23 24 -33 96 -59 452 -165 993 -105
1399 154 l52 34 0 72 c0 111 -16 185 -56 267 -64 129 -226 269 -392 337 -48
20 -102 31 -102 22 0 -2 14 -30 30 -62 17 -32 30 -67 30 -77 0 -11 17 -29 40
-44 57 -36 80 -78 80 -146 0 -68 -26 -113 -85 -146 -97 -55 -213 -4 -246 107
-22 72 25 166 98 197 29 12 32 17 27 41 -9 39 -40 87 -75 116 -25 21 -29 32
-29 74 0 70 18 82 63 42 60 -52 142 -83 235 -88 45 -3 82 -1 82 4 0 5 -7 18
-15 28 -8 11 -15 30 -15 43 0 19 3 21 23 14 45 -17 145 -23 202 -11 l57 12
-49 43 c-26 23 -61 67 -76 97 -32 62 -57 183 -57 272 0 60 1 62 46 106 26 25
55 63 65 85 36 79 19 190 -41 257 l-37 43 -5 170 c-6 186 -17 233 -79 344 -99
176 -244 291 -449 356 -115 37 -273 44 -375 16z m62 -605 c188 -74 397 -116
595 -119 102 -2 108 -3 108 -23 0 -61 30 -119 94 -179 56 -54 65 -68 76 -118
11 -45 11 -65 1 -98 -14 -46 -73 -109 -129 -138 -25 -13 -44 -31 -50 -48 -17
-50 -222 -312 -269 -344 -104 -72 -266 -117 -375 -105 -79 9 -188 49 -262 96
-47 30 -79 65 -172 190 -63 84 -114 158 -114 166 0 8 -19 26 -42 40 -55 34
-106 82 -124 116 -8 15 -14 53 -14 85 0 64 22 110 65 139 14 9 25 20 25 24 0
4 39 47 88 96 83 84 209 257 231 316 l10 27 83 -43 c46 -24 124 -60 175 -80z
m-12 -1223 c81 -17 207 -12 273 11 l42 15 0 -103 c0 -100 -1 -103 -28 -123
-120 -88 -257 -93 -354 -13 l-38 31 0 106 c0 96 2 105 18 98 9 -4 49 -14 87
-22z m-2 -318 c75 -22 152 -19 221 10 33 13 61 23 63 21 5 -4 -164 -356 -171
-356 -5 0 -216 366 -216 376 0 3 12 -4 26 -15 15 -12 49 -28 77 -36z"/>
<path d="M3284 1872 c-245 -130 -383 -326 -372 -528 3 -57 3 -57 58 -95 30
-21 58 -39 63 -39 4 0 7 24 7 53 0 28 11 98 23 153 20 86 31 112 71 168 27 38
64 75 87 88 21 13 42 31 45 41 3 9 14 22 25 27 10 6 19 19 19 29 0 10 13 45
30 77 16 32 30 60 30 62 0 7 -22 -2 -86 -36z"/>
<path d="M4207 1690 c-80 -70 -44 -193 60 -207 77 -10 133 40 133 119 0 68
-37 109 -106 115 -46 5 -54 2 -87 -27z"/>
</g>
</svg>
