<?xml version="1.0" standalone="no"?>
<!DOCTYPE svg PUBLIC "-//W3C//DTD SVG 20010904//EN"
 "http://www.w3.org/TR/2001/REC-SVG-20010904/DTD/svg10.dtd">
<svg version="1.0" xmlns="http://www.w3.org/2000/svg"
 width="500.000000pt" height="500.000000pt" viewBox="0 0 500.000000 500.000000"
 preserveAspectRatio="xMidYMid meet">

<g transform="translate(0.000000,500.000000) scale(0.100000,-0.100000)"
fill="#000000" stroke="none">
<path d="M2325 4735 c-27 -8 -53 -14 -57 -15 -3 0 -39 -22 -80 -48 -40 -27
-94 -61 -120 -75 -88 -51 -198 -197 -247 -330 -15 -42 -21 -80 -21 -140 0 -99
20 -148 83 -209 62 -61 67 -75 67 -183 0 -113 8 -134 89 -220 31 -33 67 -85
81 -115 86 -185 92 -191 200 -172 59 10 101 24 208 69 9 4 12 -9 12 -44 0 -77
-29 -113 -110 -136 -148 -41 -167 -48 -202 -77 -25 -20 -54 -65 -88 -133 -29
-56 -61 -113 -73 -126 -33 -35 -120 -92 -242 -157 -137 -74 -212 -143 -243
-227 -39 -102 -23 -199 48 -301 22 -31 38 -61 35 -65 -2 -5 -37 -28 -77 -52
-89 -52 -257 -217 -316 -309 -88 -135 -142 -318 -149 -500 -11 -289 87 -480
343 -663 63 -46 127 -74 223 -101 l75 -21 18 -105 c10 -58 26 -143 36 -190
l19 -85 616 -3 616 -2 20 53 c39 105 53 203 49 349 l-3 137 124 81 c150 99
268 192 499 399 121 109 124 114 123 239 -3 268 -94 1064 -162 1412 -56 288
-114 377 -339 517 -107 67 -270 180 -270 188 0 2 20 3 45 3 57 0 104 33 134
94 17 37 19 49 10 79 -10 32 -9 39 21 81 56 79 48 171 -19 232 -12 11 -21 31
-21 47 0 33 -39 82 -79 99 -17 7 -48 10 -70 8 l-39 -3 -7 70 c-11 110 -41 211
-89 301 -105 197 -225 302 -401 350 -64 17 -205 17 -270 -1z m980 -2935 c20
-123 83 -382 111 -454 3 -7 -34 -38 -93 -77 -54 -35 -144 -108 -200 -162
l-101 -98 -7 77 c-9 90 7 252 35 353 21 73 30 93 118 263 28 53 63 136 78 185
15 48 28 84 30 78 2 -5 15 -80 29 -165z"/>
</g>
</svg>
