<?xml version="1.0" standalone="no"?>
<!DOCTYPE svg PUBLIC "-//W3C//DTD SVG 20010904//EN"
 "http://www.w3.org/TR/2001/REC-SVG-20010904/DTD/svg10.dtd">
<svg version="1.0" xmlns="http://www.w3.org/2000/svg"
 width="374.000000pt" height="360.000000pt" viewBox="0 0 374.000000 360.000000"
 preserveAspectRatio="xMidYMid meet">

<g transform="translate(0.000000,360.000000) scale(0.100000,-0.100000)"
fill="#000000" stroke="none">
<path d="M870 2980 c-8 -5 -10 -10 -5 -10 6 0 17 5 25 10 8 5 11 10 5 10 -5 0
-17 -5 -25 -10z"/>
<path d="M2558 2983 c7 -3 16 -2 19 1 4 3 -2 6 -13 5 -11 0 -14 -3 -6 -6z"/>
<path d="M2605 2970 c11 -5 27 -9 35 -9 9 0 8 4 -5 9 -11 5 -27 9 -35 9 -9 0
-8 -4 5 -9z"/>
<path d="M832 2927 c-213 -87 -303 -211 -300 -412 1 -74 3 -79 6 -30 3 44 6
55 12 40 7 -16 9 -11 10 20 2 82 26 163 62 207 19 24 40 53 47 65 14 28 74 63
176 103 44 17 84 36 90 41 13 13 10 12 -103 -34z"/>
<path d="M2670 2950 c8 -5 20 -10 25 -10 6 0 3 5 -5 10 -8 5 -19 10 -25 10 -5
0 -3 -5 5 -10z"/>
<path d="M2720 2930 c8 -5 20 -10 25 -10 6 0 3 5 -5 10 -8 5 -19 10 -25 10 -5
0 -3 -5 5 -10z"/>
<path d="M2775 2905 c49 -37 89 -83 119 -135 46 -79 59 -116 65 -195 l7 -70 4
49 c6 60 -17 158 -53 218 -27 47 -99 118 -138 137 -23 12 -23 11 -4 -4z"/>
<path d="M542 2400 c0 -14 2 -19 5 -12 2 6 2 18 0 25 -3 6 -5 1 -5 -13z"/>
<path d="M2942 2398 c-4 -36 -64 -203 -141 -387 -45 -106 -81 -195 -81 -197 0
-2 8 -4 17 -4 9 0 14 2 11 6 -3 3 7 31 22 62 24 52 44 111 40 121 -1 2 2 7 7
10 5 3 16 29 25 56 33 99 90 239 101 249 9 7 11 26 6 56 -3 25 -7 38 -7 28z"/>
<path d="M620 2186 c0 -10 100 -206 105 -206 5 0 -92 199 -101 209 -2 2 -4 1
-4 -3z"/>
<path d="M621 2117 c-1 -5 4 -18 10 -29 6 -12 11 -49 11 -84 0 -35 4 -64 9
-64 5 0 9 1 9 3 0 1 4 16 9 34 8 26 4 42 -19 90 -16 32 -29 54 -29 50z"/>
<path d="M976 1605 c3 -8 9 -13 14 -10 4 2 15 -14 25 -36 17 -38 57 -79 76
-79 15 0 -72 115 -96 128 -21 11 -24 10 -19 -3z"/>
<path d="M936 1597 c3 -10 9 -15 12 -12 3 3 0 11 -7 18 -10 9 -11 8 -5 -6z"/>
<path d="M2543 1523 c-13 -75 -16 -87 -27 -94 -9 -7 17 -13 97 -24 45 -6 47
-5 47 19 0 14 6 26 13 26 10 1 -39 33 -53 35 -17 2 -31 21 -41 55 -7 22 -15
40 -19 40 -4 0 -12 -26 -17 -57z"/>
<path d="M961 1561 c-10 -6 -9 -10 5 -15 20 -8 25 -4 16 11 -4 7 -13 9 -21 4z"/>
<path d="M2709 1457 c14 -18 61 -23 61 -7 0 6 -9 10 -19 10 -11 0 -28 3 -38 7
-16 6 -16 5 -4 -10z"/>
<path d="M967 1299 c18 -18 35 -31 37 -28 3 3 -12 18 -32 33 l-37 29 32 -34z"/>
<path d="M1021 1253 c0 -5 14 -19 32 -32 l32 -25 -29 32 c-31 33 -36 37 -35
25z"/>
<path d="M2658 1153 c6 -2 18 -2 25 0 6 3 1 5 -13 5 -14 0 -19 -2 -12 -5z"/>
<path d="M2423 1143 c9 -2 25 -2 35 0 9 3 1 5 -18 5 -19 0 -27 -2 -17 -5z"/>
<path d="M2548 1143 c17 -2 47 -2 65 0 17 2 3 4 -33 4 -36 0 -50 -2 -32 -4z"/>
<path d="M1150 1135 c0 -6 40 -50 89 -99 65 -65 92 -99 101 -130 7 -22 30 -67
51 -100 21 -32 39 -67 39 -78 0 -19 107 -148 123 -148 4 0 7 9 7 20 0 25 7 25
64 0 65 -27 109 -71 124 -122 19 -66 40 -195 47 -283 3 -44 11 -106 17 -138
l11 -57 59 0 c53 0 59 2 54 17 -4 10 -14 81 -23 158 -15 132 -15 145 1 215 10
41 28 95 39 119 20 40 32 50 112 90 50 25 95 49 100 53 6 5 36 29 67 55 l57
47 -26 48 c-14 26 -31 48 -36 48 -5 0 -31 -22 -57 -49 -36 -37 -53 -48 -69
-44 -20 5 -81 -16 -81 -28 0 -4 -12 -9 -27 -12 -105 -22 -152 -28 -183 -24
-31 5 -32 4 -12 -5 21 -11 31 -28 15 -28 -66 1 -237 73 -288 120 -64 60 -150
154 -173 189 -20 31 -33 41 -53 41 -20 0 -41 17 -88 68 -33 37 -61 62 -61 57z"/>
<path d="M2315 905 c-9 -78 -4 -109 32 -195 33 -80 40 -90 65 -90 11 0 28 -10
39 -22 l19 -23 23 28 c12 15 28 27 35 27 7 0 12 6 12 13 0 8 3 9 8 1 13 -19
43 -31 67 -26 19 3 25 14 35 65 6 34 13 72 16 85 2 12 12 22 21 22 14 0 13 3
-5 16 -12 8 -29 29 -38 46 -15 29 -15 31 12 59 38 39 24 47 -18 11 -38 -34
-101 -43 -151 -23 -16 6 -35 11 -44 11 -14 0 -14 -2 1 -19 10 -11 15 -25 10
-32 -4 -7 -8 -37 -10 -66 -2 -46 2 -59 24 -85 28 -33 19 -31 -34 9 -32 24 -54
72 -88 196 -9 31 -18 57 -20 57 -3 0 -8 -29 -11 -65z"/>
<path d="M937 877 c-7 -7 -30 -28 -51 -47 -30 -29 -47 -36 -94 -41 l-57 -6 47
-2 c39 -1 51 -6 64 -26 14 -21 15 -31 5 -51 -14 -32 -14 -34 4 -34 8 0 28 -21
46 -47 38 -57 83 -107 121 -134 25 -18 27 -18 21 -3 -7 19 -9 20 66 -31 63
-42 84 -45 50 -7 -13 15 -30 38 -37 51 -13 21 -12 23 3 17 9 -3 29 -9 43 -13
31 -7 66 -27 101 -57 13 -12 4 5 -21 37 -57 74 -58 91 -6 83 36 -6 39 -5 36
16 -2 15 4 26 21 34 l23 12 -21 11 c-11 7 -21 9 -21 6 0 -4 -20 10 -45 30 -54
45 -79 89 -64 116 5 10 8 19 7 20 -2 0 -21 3 -42 5 -21 3 -48 11 -60 19 -11 8
-30 15 -42 15 -12 0 -27 6 -33 14 -17 20 -49 26 -64 13z"/>
<path d="M2133 805 c-12 -12 -19 -26 -16 -29 7 -6 43 32 43 46 0 11 -2 10 -27
-17z"/>
<path d="M1240 692 c0 -5 10 -17 22 -28 l21 -19 -18 28 c-18 28 -25 33 -25 19z"/>
<path d="M2598 395 c-2 -102 -1 -122 10 -108 14 20 17 233 3 233 -6 0 -11 -56
-13 -125z"/>
<path d="M2705 460 c3 -5 8 -10 11 -10 2 0 4 5 4 10 0 6 -5 10 -11 10 -5 0 -7
-4 -4 -10z"/>
<path d="M2735 270 c27 -12 35 -12 35 0 0 6 -12 10 -27 9 -25 0 -26 -1 -8 -9z"/>
</g>
</svg>
