<?xml version="1.0" standalone="no"?>
<!DOCTYPE svg PUBLIC "-//W3C//DTD SVG 20010904//EN"
 "http://www.w3.org/TR/2001/REC-SVG-20010904/DTD/svg10.dtd">
<svg version="1.0" xmlns="http://www.w3.org/2000/svg"
 width="500.000000pt" height="500.000000pt" viewBox="0 0 500.000000 500.000000"
 preserveAspectRatio="xMidYMid meet">

<g transform="translate(0.000000,500.000000) scale(0.100000,-0.100000)"
fill="#000000" stroke="none">
<path d="M1810 3857 c-180 -54 -350 -184 -469 -360 -53 -78 -111 -212 -127
-290 -12 -62 -54 -560 -54 -635 0 -21 -22 -48 -107 -129 -90 -86 -106 -106
-106 -132 0 -55 26 -71 113 -71 45 0 83 -5 93 -12 12 -10 25 -72 52 -253 30
-198 42 -251 66 -302 36 -76 108 -143 187 -175 55 -22 68 -23 412 -26 230 -2
359 -7 367 -14 9 -7 10 -15 3 -29 -9 -16 -26 -19 -153 -21 l-142 -3 -3 -129
c-2 -86 1 -133 9 -142 9 -12 85 -14 430 -14 403 0 419 1 429 19 6 12 10 125
10 297 0 338 -2 331 123 419 115 82 294 264 334 340 36 69 83 197 83 226 0 15
-7 19 -34 19 -32 0 -37 -4 -67 -61 -38 -70 -78 -104 -146 -125 -81 -25 -176 0
-235 63 -33 35 -67 109 -68 146 l0 27 -42 -22 c-34 -18 -59 -23 -123 -23 -93
0 -139 20 -200 84 l-38 40 -28 -20 c-101 -72 -246 -63 -341 21 l-43 38 -30
-24 c-69 -55 -206 -70 -283 -30 -84 44 -150 136 -161 227 -1 4 -21 14 -46 23
-55 21 -127 98 -143 154 -43 144 29 288 164 328 51 14 52 16 58 59 9 57 59
131 114 170 40 27 51 30 122 30 l78 0 16 55 c42 150 206 223 344 154 29 -14
60 -36 71 -49 l18 -24 23 24 c60 64 164 90 252 63 47 -14 130 -85 147 -125 11
-27 14 -28 84 -28 54 -1 82 -6 112 -22 84 -45 133 -121 140 -216 3 -51 3 -51
48 -64 59 -17 118 -76 147 -147 l24 -57 95 3 96 3 3 32 c4 43 -50 202 -91 266
-96 148 -261 300 -402 370 -181 90 -234 97 -713 96 -380 0 -400 -1 -472 -22z"/>
<path d="M2045 3706 c-61 -27 -115 -110 -115 -176 0 -43 25 -99 61 -136 33
-34 36 -67 6 -72 -24 -5 -80 56 -103 112 -21 50 -36 59 -102 58 -85 -1 -168
-74 -178 -158 -5 -39 -5 -39 48 -64 38 -18 54 -32 56 -48 5 -33 -22 -37 -65
-11 -76 47 -189 21 -243 -57 -35 -52 -40 -138 -10 -198 27 -56 67 -86 134
-101 l51 -12 0 -49 c1 -105 86 -194 194 -202 76 -5 120 10 170 59 23 21 47 39
55 39 8 0 24 -15 35 -34 34 -54 93 -89 161 -94 74 -5 116 9 168 58 47 43 64
43 82 1 40 -99 182 -149 285 -102 54 24 70 44 49 61 -19 16 -44 64 -44 83 0 8
7 18 16 21 11 4 31 -10 64 -45 l48 -51 63 3 c60 4 64 3 67 -18 4 -27 -29 -43
-89 -43 l-39 0 0 -43 c0 -89 67 -169 154 -182 82 -13 172 49 195 132 7 23 11
165 11 358 0 289 -2 324 -19 360 -22 49 -67 89 -117 105 -33 11 -39 11 -51 -6
-48 -67 -110 -109 -180 -120 -28 -4 -42 -2 -51 9 -18 22 -4 47 27 47 70 1 151
67 171 141 32 118 -77 241 -199 225 -88 -11 -93 -11 -101 4 -37 78 -50 97 -82
123 -66 53 -173 48 -238 -13 -37 -34 -38 -46 -4 -54 41 -11 74 -36 74 -57 0
-28 -23 -33 -61 -13 -50 25 -102 22 -150 -12 -39 -27 -42 -27 -54 -10 -19 25
-9 43 41 72 24 14 44 30 44 34 0 12 -69 70 -97 81 -35 13 -103 11 -138 -5z
m293 -308 c7 -7 12 -40 12 -78 l0 -67 40 -12 c53 -16 108 -65 131 -118 l18
-42 68 -3 c65 -3 68 -4 68 -28 0 -24 -3 -25 -67 -28 -64 -3 -67 -4 -73 -31
-16 -74 -83 -140 -167 -165 -15 -4 -18 -17 -18 -70 0 -47 -4 -65 -15 -70 -27
-10 -45 22 -45 79 l0 54 -54 24 c-59 27 -110 85 -121 138 -6 28 -8 29 -70 29
-45 0 -66 4 -76 16 -21 25 14 44 82 44 l56 0 17 44 c20 52 78 108 130 127 l36
13 0 71 c0 40 3 75 7 78 10 11 28 8 41 -5z"/>
<path d="M2293 3189 c-139 -29 -169 -215 -47 -287 98 -58 234 19 234 132 0
102 -90 176 -187 155z"/>
<path d="M3750 3197 c-20 -7 -43 -26 -55 -44 -19 -30 -24 -32 -76 -33 -62 0
-83 -14 -77 -52 3 -21 9 -23 62 -26 55 -3 62 -6 96 -45 36 -40 40 -42 95 -42
53 0 59 3 91 37 28 31 34 46 34 80 0 96 -81 156 -170 125z"/>
<path d="M4091 3102 c-51 -25 -76 -65 -75 -118 l1 -44 -98 -75 -97 -75 -140 0
c-150 0 -167 -5 -160 -52 3 -23 4 -23 165 -26 l162 -2 110 85 c100 77 112 84
136 75 115 -44 219 82 155 188 -20 32 -71 62 -107 62 -10 0 -33 -8 -52 -18z"/>
<path d="M3294 3037 c-2 -7 -3 -67 -2 -133 l3 -119 70 0 69 0 24 118 c13 66
21 125 18 133 -7 19 -174 20 -182 1z"/>
<path d="M3294 2707 c-2 -7 -3 -56 -2 -108 l3 -94 40 0 c40 0 40 0 53 50 7 28
14 75 15 105 l2 55 -53 3 c-37 2 -54 -1 -58 -11z"/>
<path d="M3793 2591 c-11 -5 -34 -26 -50 -45 l-28 -36 -112 0 c-127 0 -143 -4
-143 -34 0 -40 18 -46 137 -46 l114 0 37 -39 c64 -67 157 -62 202 11 50 83 2
186 -90 194 -25 2 -55 0 -67 -5z"/>
<path d="M3439 1743 c-5 -15 -9 -57 -8 -95 3 -98 -8 -108 -122 -108 -103 0
-109 -5 -109 -94 0 -77 12 -86 115 -86 63 0 88 -4 99 -16 9 -8 16 -18 16 -22
1 -4 3 -45 5 -91 3 -54 9 -87 17 -93 7 -4 43 -8 80 -8 83 0 88 7 88 118 0 104
8 112 118 112 102 0 112 8 112 94 0 35 -5 67 -12 74 -7 7 -43 12 -93 12 -115
0 -125 9 -125 111 0 114 -4 119 -96 119 -72 0 -75 -1 -85 -27z"/>
</g>
</svg>
