<?xml version="1.0" standalone="no"?>
<!DOCTYPE svg PUBLIC "-//W3C//DTD SVG 20010904//EN"
 "http://www.w3.org/TR/2001/REC-SVG-20010904/DTD/svg10.dtd">
<svg version="1.0" xmlns="http://www.w3.org/2000/svg"
 width="500.000000pt" height="538.000000pt" viewBox="0 0 500.000000 538.000000"
 preserveAspectRatio="xMidYMid meet">

<g transform="translate(0.000000,538.000000) scale(0.100000,-0.100000)"
fill="#000000" stroke="none">
<path d="M1428 4576 c-73 -16 -145 -64 -242 -163 -160 -165 -164 -217 -13
-184 23 5 76 15 117 21 111 18 283 49 285 52 108 155 126 187 114 206 -15 24
-66 50 -134 68 -58 16 -53 16 -127 0z"/>
<path d="M2015 4575 c-5 -1 -30 -9 -55 -16 -148 -44 -279 -168 -341 -324 -21
-54 -23 -75 -23 -210 1 -122 5 -167 23 -238 41 -159 88 -253 169 -335 213
-217 596 -158 744 114 52 96 107 296 108 390 0 51 -13 55 -161 48 -253 -11
-384 30 -517 163 -75 74 -88 105 -46 111 16 2 33 -10 59 -42 83 -101 223 -164
389 -173 110 -6 243 9 264 31 13 13 14 22 2 73 -44 193 -206 360 -390 402 -41
9 -200 14 -225 6z m-139 -172 c31 -41 4 -102 -32 -72 -15 13 -28 64 -19 79 10
16 36 12 51 -7z"/>
<path d="M2690 4543 c-69 -25 -130 -65 -130 -85 0 -5 17 -35 38 -66 21 -31 44
-73 52 -92 32 -83 27 -80 245 -116 55 -10 123 -21 150 -25 28 -5 77 -12 111
-15 81 -9 87 7 39 87 -91 149 -197 255 -298 298 -47 20 -167 28 -207 14z"/>
<path d="M3557 3940 c-32 -28 -40 -30 -117 -30 -77 0 -83 -2 -111 -30 l-30
-29 3 -438 3 -438 29 -60 c41 -84 124 -163 219 -209 42 -20 77 -42 77 -50 0
-33 41 -65 91 -72 l49 -7 0 -233 c0 -201 -2 -235 -16 -249 -15 -14 -59 -16
-413 -13 -218 1 -402 -1 -408 -5 -17 -11 -16 -52 1 -66 10 -9 130 -11 446 -9
l432 3 19 24 c18 22 19 42 19 286 l0 262 47 6 c51 5 93 41 93 78 0 10 4 19 10
19 22 0 121 52 167 89 27 21 66 64 86 94 64 96 67 122 67 575 l0 404 -34 34
c-33 33 -37 34 -111 34 -72 0 -80 2 -112 30 -28 25 -42 30 -84 30 -28 0 -60
-5 -72 -11 -60 -31 -75 -102 -33 -154 23 -29 28 -30 100 -30 70 0 78 2 101 28
22 23 33 27 83 27 32 0 63 -5 70 -12 9 -9 12 -111 12 -400 0 -366 -1 -390 -21
-442 -26 -72 -93 -145 -167 -184 -53 -29 -61 -30 -73 -16 -29 35 -66 44 -178
44 -102 0 -111 -2 -139 -25 -38 -32 -46 -31 -107 4 -59 34 -114 92 -147 153
-22 42 -22 50 -26 446 -2 301 0 407 9 418 7 9 31 14 70 14 50 0 62 -4 82 -26
27 -29 90 -41 152 -30 63 12 93 87 58 146 -21 36 -52 50 -113 50 -41 0 -55 -5
-83 -30z"/>
<path d="M2477 3394 c-26 -20 -49 -46 -52 -58 -2 -11 -6 -68 -8 -126 -2 -66
-9 -114 -18 -129 -27 -47 -70 -88 -116 -112 -40 -21 -61 -24 -142 -24 -81 1
-102 4 -136 24 -102 58 -135 120 -135 250 l0 90 -52 35 c-29 19 -57 31 -61 27
-4 -4 -19 -50 -32 -102 -23 -95 -53 -202 -84 -311 -6 -18 -14 -49 -20 -68 -5
-19 -20 -69 -31 -110 -12 -41 -26 -88 -30 -105 -23 -81 -92 -328 -110 -390
-12 -38 -26 -88 -32 -110 -5 -22 -14 -51 -18 -65 -4 -14 -13 -45 -20 -70 -7
-25 -16 -55 -21 -68 -13 -34 -11 -59 7 -66 9 -3 352 -6 763 -6 548 0 750 3
758 11 13 13 7 66 -10 87 -7 9 -69 12 -246 12 -306 0 -281 -20 -281 216 0 157
-2 175 -17 180 -96 31 -154 86 -179 169 -15 53 -15 62 -1 112 32 110 112 175
220 176 72 1 123 -21 173 -75 66 -71 78 -180 30 -262 -30 -51 -95 -104 -139
-113 l-27 -6 2 -166 3 -166 215 0 215 0 -1 45 c0 25 -12 88 -27 140 -14 52
-50 187 -81 300 -31 113 -61 223 -67 245 -7 22 -16 54 -20 70 -33 116 -54 189
-71 244 -16 55 -17 66 -5 78 7 8 21 11 29 8 21 -8 31 -35 78 -215 13 -47 31
-112 41 -144 11 -33 19 -65 19 -71 0 -14 111 -147 182 -217 45 -46 50 -48 102
-48 50 0 59 3 96 38 37 36 40 43 40 93 0 59 18 32 -263 403 -12 16 -27 34 -32
40 -6 6 -41 54 -79 106 -38 52 -80 110 -93 128 -38 51 -73 83 -109 98 -46 19
-53 18 -107 -22z"/>
<path d="M1616 3370 c-19 -17 -60 -66 -90 -108 -30 -42 -105 -142 -166 -222
-196 -254 -252 -331 -259 -357 -11 -42 0 -99 24 -128 26 -29 84 -54 119 -50
11 1 28 3 37 4 21 1 219 222 238 264 8 18 23 64 33 102 27 96 36 129 48 170 6
19 15 52 21 73 5 20 14 51 19 67 47 165 53 208 28 213 -9 2 -32 -11 -52 -28z"/>
<path d="M2308 3295 c-3 -3 -32 -12 -64 -21 -54 -14 -150 -15 -279 -2 -30 3
-30 3 -33 -56 -3 -67 9 -108 47 -149 37 -40 72 -56 138 -63 149 -16 242 66
243 211 0 57 -10 85 -29 85 -10 0 -20 -2 -23 -5z"/>
<path d="M2290 2778 c-53 -37 -73 -71 -78 -135 -3 -49 0 -64 20 -93 79 -116
245 -105 299 20 18 40 11 121 -13 155 -51 76 -158 100 -228 53z m108 -50 c5
-7 12 -24 14 -38 2 -19 9 -25 29 -26 32 -1 49 -11 49 -29 0 -18 -17 -28 -49
-29 -20 -1 -27 -7 -29 -28 -7 -55 -62 -64 -62 -9 0 30 -14 41 -55 41 -47 0
-38 49 11 54 16 2 32 4 37 5 4 0 7 17 7 36 0 28 4 35 19 35 10 0 23 -6 29 -12z"/>
<path d="M1669 1821 c-26 -21 -29 -45 -45 -383 -6 -123 -4 -152 9 -180 37 -77
106 -110 166 -78 63 34 83 78 101 225 11 91 19 151 41 303 11 81 11 84 -11
108 -22 23 -30 24 -131 24 -90 0 -110 -3 -130 -19z"/>
<path d="M2391 1824 c-22 -16 -23 -21 -18 -93 4 -42 11 -110 16 -151 5 -41 15
-115 21 -165 15 -125 26 -161 63 -201 24 -26 43 -37 73 -41 59 -8 98 18 131
86 22 48 25 63 20 125 -4 39 -11 145 -17 236 -14 219 -11 214 -156 218 -89 2
-113 -1 -133 -14z"/>
<path d="M1160 175 c0 -55 4 -84 10 -80 13 8 13 152 0 160 -6 4 -10 -25 -10
-80z"/>
<path d="M2120 176 c0 -51 4 -86 10 -86 6 0 10 11 10 25 0 14 4 25 8 25 5 0
15 -11 22 -25 7 -14 17 -25 22 -25 13 0 9 13 -12 40 -19 25 -19 25 2 47 12 13
17 23 11 23 -6 0 -16 -7 -23 -15 -21 -25 -30 -17 -30 24 0 22 -4 43 -10 46 -6
4 -10 -25 -10 -79z"/>
<path d="M2879 223 c-11 -13 -11 -17 -1 -20 20 -7 16 -90 -5 -102 -14 -8 -8
-10 27 -10 35 0 41 2 28 10 -14 8 -18 24 -18 74 0 67 -7 78 -31 48z"/>
<path d="M2980 226 c-6 -8 -10 -23 -9 -33 1 -10 -1 -30 -6 -46 -9 -34 8 -57
42 -57 13 0 32 7 40 16 14 13 14 20 4 36 -6 10 -9 28 -6 38 14 44 -36 79 -65
46z m48 -23 c-5 -26 -38 -29 -38 -4 0 15 6 21 21 21 14 0 19 -5 17 -17z m7
-68 c0 -14 -8 -21 -27 -23 -22 -3 -28 1 -28 16 0 25 10 33 35 30 12 -2 20 -10
20 -23z"/>
<path d="M3091 224 c-7 -8 -10 -18 -6 -22 4 -4 10 -1 12 6 6 15 39 16 49 0 4
-6 0 -16 -9 -23 -21 -15 -22 -25 -3 -25 20 0 27 -27 11 -40 -9 -7 -26 -9 -42
-5 -23 5 -25 4 -14 -9 18 -21 58 -20 70 2 5 10 6 42 3 72 -6 49 -10 55 -32 57
-14 2 -31 -4 -39 -13z"/>
<path d="M3200 230 c0 -5 13 -10 29 -10 16 0 36 -3 45 -6 11 -4 16 -1 16 10 0
12 -10 16 -45 16 -25 0 -45 -4 -45 -10z"/>
<path d="M3319 224 c-10 -12 -10 -20 -1 -34 7 -12 8 -21 2 -25 -14 -9 -12 -49
2 -63 18 -18 53 -14 73 8 14 16 15 22 5 35 -7 8 -10 25 -7 37 13 48 -43 80
-74 42z m56 -24 c0 -8 -10 -16 -22 -18 -18 -3 -23 2 -23 18 0 16 5 21 23 18
12 -2 22 -10 22 -18z m9 -49 c11 -17 -6 -41 -29 -41 -24 0 -35 16 -27 38 5 14
48 16 56 3z"/>
<path d="M3457 207 c-28 -34 -36 -84 -15 -105 18 -18 49 -14 68 8 23 26 81 24
88 -2 2 -10 7 -18 11 -18 11 0 29 50 20 56 -5 3 -9 26 -9 50 0 32 -4 44 -12
41 -9 -2 -12 -20 -10 -50 3 -37 0 -47 -12 -47 -22 0 -30 18 -15 36 6 8 9 17 6
20 -3 3 -13 -5 -22 -19 -11 -17 -22 -23 -35 -20 -11 3 -20 9 -20 14 0 5 -7 9
-15 9 -18 0 -18 5 -4 32 17 32 5 30 -24 -5z m41 -59 c15 -15 -3 -38 -29 -38
-22 0 -33 16 -25 35 7 18 37 20 54 3z"/>
<path d="M3672 228 c-22 -22 -15 -67 13 -80 24 -11 24 -12 8 -30 -9 -10 -13
-21 -10 -25 4 -3 8 -4 10 -2 61 89 62 90 46 117 -16 30 -48 39 -67 20z m54
-23 c7 -17 -12 -45 -31 -45 -16 0 -26 25 -19 45 8 19 43 19 50 0z"/>
<path d="M3827 234 c-3 -4 -4 -26 0 -50 5 -36 3 -44 -10 -44 -22 0 -31 18 -16
36 6 8 9 17 7 20 -6 5 -48 -48 -48 -60 0 -3 16 -6 35 -6 28 0 35 -4 35 -20 0
-11 3 -20 8 -20 12 0 31 49 21 56 -5 3 -9 25 -9 50 0 41 -7 53 -23 38z"/>
<path d="M3900 225 c-7 -9 -9 -19 -5 -23 4 -4 10 -1 12 6 7 17 40 15 47 -4 7
-19 -4 -42 -38 -73 -14 -14 -26 -28 -26 -33 0 -4 21 -8 46 -8 29 0 43 4 39 11
-4 6 -13 8 -19 6 -7 -3 -19 -1 -27 4 -12 8 -11 11 4 20 9 5 24 23 32 39 13 24
13 33 3 50 -15 24 -50 26 -68 5z"/>
<path d="M1390 215 c0 -8 -5 -15 -11 -15 -8 0 -8 -4 -1 -13 6 -7 12 -30 14
-52 3 -34 7 -40 28 -43 23 -2 24 -1 8 11 -25 20 -24 74 2 82 30 9 40 -2 40
-46 0 -38 21 -62 38 -44 4 4 1 10 -5 12 -19 7 -16 64 5 79 12 10 13 13 3 14
-8 0 -20 8 -27 18 -13 16 -13 16 -14 0 0 -23 -60 -26 -60 -3 0 8 -4 15 -10 15
-5 0 -10 -7 -10 -15z"/>
<path d="M1834 212 c-7 -18 -6 -76 2 -104 3 -10 15 -18 27 -18 20 1 21 2 5 14
-23 17 -25 76 -3 76 20 0 19 6 -4 29 -18 18 -20 18 -27 3z"/>
<path d="M1066 184 c-10 -25 -7 -34 10 -34 14 0 14 3 4 15 -10 13 -9 15 8 15
12 0 24 5 27 10 3 6 -5 10 -18 10 -14 0 -28 -7 -31 -16z"/>
<path d="M1190 190 c0 -5 7 -10 15 -10 8 0 15 -7 15 -15 0 -8 5 -15 10 -15 11
0 13 11 4 34 -7 17 -44 22 -44 6z"/>
<path d="M1278 194 c-10 -9 -10 -66 -2 -88 6 -16 50 -22 70 -8 6 4 8 25 5 52
l-5 45 -6 -40 c-4 -31 -10 -41 -27 -43 -19 -3 -22 2 -25 43 -2 26 -6 43 -10
39z"/>
<path d="M1552 180 c-15 -25 -16 -62 0 -78 15 -15 58 -16 58 -2 0 6 -11 10
-24 10 -13 0 -26 7 -30 15 -4 11 2 15 24 15 33 0 44 12 35 40 -8 26 -46 26
-63 0z m48 -10 c0 -5 -6 -10 -14 -10 -8 0 -18 5 -21 10 -3 6 3 10 14 10 12 0
21 -4 21 -10z"/>
<path d="M1667 193 c-11 -10 -8 -103 3 -103 6 0 10 20 10 45 0 33 4 45 15 45
8 0 15 5 15 10 0 11 -33 14 -43 3z"/>
<path d="M1736 184 c-7 -17 0 -34 14 -34 5 0 7 7 4 15 -4 10 0 15 15 15 12 0
21 5 21 10 0 16 -47 11 -54 -6z"/>
<path d="M1923 188 c-19 -24 -22 -48 -11 -73 14 -32 53 -33 79 -2 24 28 23 32
-3 62 -23 27 -50 32 -65 13z m58 -24 c15 -19 2 -47 -26 -52 -25 -5 -38 13 -31
42 7 30 36 35 57 10z"/>
<path d="M2032 188 c-7 -7 -12 -26 -12 -43 0 -17 5 -36 12 -43 14 -14 62 -16
53 -2 -3 6 -15 10 -25 10 -10 0 -20 8 -22 18 -7 29 3 52 23 52 11 0 19 5 19
10 0 14 -33 13 -48 -2z"/>
<path d="M2302 188 c-7 -7 -12 -26 -12 -43 0 -38 16 -55 50 -54 l25 1 -27 11
c-15 6 -29 16 -32 23 -8 22 6 54 25 54 10 0 21 5 24 10 9 14 -39 12 -53 -2z"/>
<path d="M2395 176 c-14 -21 -15 -29 -3 -53 18 -39 59 -43 78 -8 30 57 -41
114 -75 61z m68 -18 c8 -12 7 -21 -2 -32 -29 -35 -69 -8 -55 36 7 23 42 21 57
-4z"/>
<path d="M2509 193 c-7 -55 -7 -93 1 -98 6 -4 10 8 10 29 0 46 9 66 26 59 9
-3 14 -20 14 -49 0 -24 5 -44 10 -44 6 0 10 18 10 40 0 27 5 43 15 47 22 8 28
-1 36 -50 l6 -42 2 53 c1 58 -15 75 -50 54 -11 -7 -20 -8 -24 -2 -7 12 -55 14
-56 3z"/>
<path d="M3236 150 c-29 -57 -30 -60 -18 -60 11 0 57 98 50 106 -4 3 -18 -18
-32 -46z"/>
<path d="M2730 166 c0 -9 7 -16 16 -16 17 0 14 22 -4 28 -7 2 -12 -3 -12 -12z"/>
<path d="M1100 126 c0 -7 -10 -17 -22 -21 -20 -6 -21 -8 -5 -12 10 -3 25 -2
33 1 16 6 20 46 4 46 -5 0 -10 -6 -10 -14z"/>
<path d="M1220 121 c0 -11 5 -23 10 -26 6 -4 10 5 10 19 0 14 -4 26 -10 26 -5
0 -10 -9 -10 -19z"/>
<path d="M1772 123 c2 -12 -3 -17 -14 -15 -10 2 -18 -2 -18 -8 0 -6 10 -10 23
-8 23 3 39 48 17 48 -6 0 -10 -8 -8 -17z"/>
</g>
</svg>
